<svg width="72" height="72" viewBox="0 0 72 72" fill="none" xmlns="http://www.w3.org/2000/svg">
<path d="M45.3179 68.7629C44.4297 68.7629 43.5347 68.6759 42.6435 68.4982C42.2373 68.4172 41.9736 68.0226 42.0547 67.6164C42.1357 67.2101 42.5356 66.9474 42.9365 67.0275C46.0962 67.6544 49.3125 67.0168 51.9912 65.2257C54.6704 63.4357 56.4917 60.7101 57.1206 57.55C57.2016 57.1437 57.603 56.883 58.0024 56.9611C58.4087 57.0421 58.6724 57.4367 58.5913 57.8429C57.8848 61.3957 55.8369 64.4611 52.8247 66.4738C50.5679 67.9816 47.9722 68.7628 45.3179 68.7628V68.7629Z" fill="#9CA2A4"/>
<path d="M5.20196 44.5293C5.86578 44.5293 6.40392 43.6709 6.40392 42.612C6.40392 41.5532 5.86578 40.6948 5.20196 40.6948C4.53814 40.6948 4 41.5532 4 42.612C4 43.6709 4.53814 44.5293 5.20196 44.5293Z" fill="#9CA2A4"/>
<path d="M62.7341 19.8077C63.2035 19.3383 62.9771 18.3509 62.2284 17.6021C61.4796 16.8534 60.4922 16.627 60.0228 17.0964C59.5534 17.5658 59.7798 18.5532 60.5285 19.302C61.2773 20.0507 62.2647 20.2771 62.7341 19.8077Z" fill="#9CA2A4"/>
<path d="M43.1144 32.5498C39.2765 32.5498 35.4381 31.0889 32.5162 28.167C26.673 22.3232 26.673 12.8145 32.5162 6.9707C32.8092 6.67773 33.2838 6.67773 33.5768 6.9707C33.8698 7.26367 33.8698 7.73828 33.5768 8.03125C28.3185 13.29 28.3185 21.8477 33.5768 27.1065C38.8366 32.3652 47.3932 32.3652 52.652 27.1065C52.945 26.8135 53.4196 26.8135 53.7125 27.1065C54.0055 27.3994 54.0055 27.874 53.7125 28.167C50.7907 31.0889 46.9528 32.5498 43.1144 32.5498L43.1144 32.5498Z" fill="#9CA2A4"/>
<path d="M10.2341 52.2243C9.97682 52.2243 9.72584 52.0915 9.58619 51.8532C8.41236 49.8464 8.41236 47.3542 9.58619 45.3473L9.97779 44.6784C10.7654 43.3317 10.8748 41.7331 10.2781 40.2917C9.68091 38.8503 8.4729 37.7975 6.96363 37.402C6.56275 37.2965 6.32301 36.8874 6.42799 36.486C6.53297 36.0846 6.94361 35.8463 7.34352 35.9508C9.31081 36.4665 10.8855 37.8395 11.6638 39.7174C12.4417 41.5963 12.2996 43.6803 11.2727 45.4362L10.8811 46.1051C9.98073 47.6442 9.98073 49.5563 10.8811 51.0954C11.0901 51.4528 10.97 51.9127 10.6126 52.1217C10.4934 52.1911 10.3631 52.2243 10.2341 52.2243L10.2341 52.2243Z" fill="#9CA2A4"/>
<path d="M53.9158 11.7643C53.9158 12.1091 53.6775 12.4191 53.3269 12.4963C52.9226 12.5856 52.5222 12.3298 52.4334 11.9255L52.2664 11.1686C51.9314 9.64469 50.9266 8.39665 49.5096 7.74333C48.0926 7.09001 46.49 7.1364 45.1131 7.87077L44.4324 8.23454C42.3816 9.32927 39.8895 9.2321 37.9305 7.97966C37.5809 7.75652 37.4793 7.29216 37.7019 6.94402C37.9246 6.5949 38.3885 6.49285 38.7371 6.71599C40.241 7.67644 42.1521 7.75115 43.7254 6.9113L44.407 6.54753C46.202 5.59001 48.2908 5.52946 50.1375 6.38103C51.9842 7.2326 53.2937 8.86003 53.7312 10.8459L53.8982 11.6022C53.91 11.6564 53.9158 11.7111 53.9158 11.7643H53.9158Z" fill="#9CA2A4"/>
<path d="M47.6362 27.0744C47.4927 27.0744 47.3481 27.0333 47.2202 26.9484C46.8755 26.7179 46.7832 26.2521 47.0132 25.9074L54.8169 14.2287C55.0474 13.8849 55.5142 13.7941 55.8569 14.0216C56.2017 14.2521 56.2939 14.7179 56.064 15.0626L48.2603 26.7413C48.1157 26.9572 47.8779 27.0744 47.6362 27.0744Z" fill="#9CA2A4"/>
<path d="M64.3476 59.8623C63.9971 59.8623 63.6841 59.6152 63.6133 59.2588L60.873 45.4824C60.792 45.0762 61.0557 44.6816 61.4619 44.6006C61.8657 44.5195 62.2627 44.7832 62.3437 45.1894L65.084 58.9658C65.165 59.3721 64.9014 59.7666 64.4951 59.8477C64.4458 59.8574 64.3965 59.8623 64.3476 59.8623Z" fill="#9CA2A4"/>
<path d="M26.1538 65.5781C25.9619 65.5781 25.77 65.5049 25.6235 65.3584L15.6914 55.4268C15.3984 55.1338 15.3984 54.6592 15.6914 54.3662C15.9844 54.0732 16.459 54.0732 16.752 54.3662L26.6841 64.2978C26.9771 64.5908 26.9771 65.0654 26.6841 65.3584C26.5376 65.5049 26.3457 65.5781 26.1538 65.5781H26.1538Z" fill="#9CA2A4"/>
<path d="M38.8428 55.4591C38.7939 55.4591 38.7451 55.4543 38.6953 55.4445C38.2891 55.3634 38.0254 54.9689 38.1064 54.5626L40.8467 40.7873C40.9277 40.381 41.3237 40.1203 41.7285 40.1984C42.1348 40.2794 42.3984 40.674 42.3174 41.0802L39.5771 54.8556C39.5063 55.2121 39.1929 55.4591 38.8428 55.4591Z" fill="#9CA2A4"/>
<path d="M40.2108 64.6337C39.8778 64.6337 39.5741 64.4111 39.4857 64.0732C39.034 62.3486 37.682 60.996 35.9569 60.5439L35.2084 60.3486C33.2401 59.8329 31.6659 58.4599 30.8876 56.582C30.1097 54.7031 30.2518 52.6191 31.2787 50.8632L31.6698 50.1943C32.5702 48.6552 32.5702 46.7431 31.6698 45.204C31.4608 44.8466 31.5809 44.3867 31.9383 44.1777C32.2948 43.9697 32.7547 44.0878 32.9647 44.4462C34.1385 46.4531 34.1385 48.9452 32.9647 50.9521L32.5736 51.621C31.786 52.9677 31.6766 54.5663 32.2733 56.0077C32.8705 57.4492 34.0785 58.5019 35.5873 58.8974L36.3358 59.0927C38.5858 59.6825 40.348 61.4452 40.9369 63.6943C41.0418 64.0947 40.8021 64.5048 40.4012 64.6093C40.3377 64.6259 40.2738 64.6337 40.2108 64.6337L40.2108 64.6337Z" fill="#9CA2A4"/>
<path d="M45.7153 38.1506C45.6665 38.1506 45.6177 38.1457 45.5679 38.1359L31.792 35.3957C31.3857 35.3147 31.1221 34.9201 31.2031 34.5139C31.2842 34.1076 31.6816 33.8449 32.085 33.925L45.8608 36.6652C46.2671 36.7463 46.5308 37.1408 46.4497 37.5471C46.3789 37.9035 46.0654 38.1506 45.7153 38.1506Z" fill="#9CA2A4"/>
<path d="M24.5598 54.1918C24.5253 54.1573 24.4942 54.1193 24.4659 54.0772L16.6625 42.3985C16.4326 42.0539 16.5251 41.5885 16.8697 41.3586C17.2142 41.1286 17.681 41.2239 17.9096 41.5657L25.713 53.2444C25.9429 53.589 25.8504 54.0544 25.5058 54.2843C25.2037 54.4863 24.8073 54.4393 24.5598 54.1918Z" fill="#9CA2A4"/>
<path d="M23.9087 18.452C23.7651 18.452 23.6206 18.411 23.4927 18.326L11.814 10.5223C11.4692 10.2918 11.377 9.82602 11.6069 9.48129C11.8374 9.13656 12.3042 9.04574 12.647 9.27426L24.3257 17.078C24.6704 17.3084 24.7627 17.7743 24.5327 18.119C24.3882 18.3348 24.1504 18.452 23.9087 18.452Z" fill="#9CA2A4"/>
<path d="M44.9993 24.5331C44.8802 24.5331 44.7591 24.5047 44.6463 24.4442L32.2981 17.8495C31.9329 17.6551 31.7947 17.2001 31.99 16.8348C32.1858 16.4696 32.6409 16.3309 33.0052 16.5272L45.3533 23.1219C45.7185 23.3163 45.8567 23.7713 45.6614 24.1366C45.5262 24.3895 45.2669 24.5331 44.9993 24.5331V24.5331Z" fill="#9CA2A4"/>
<path d="M15.0135 65.5781C14.7459 65.5781 14.4866 65.4346 14.3514 65.1816C14.1561 64.8164 14.2942 64.3613 14.6595 64.167L27.0076 57.5723C27.3743 57.375 27.8274 57.5137 28.0228 57.8799C28.2181 58.2451 28.0799 58.7002 27.7146 58.8945L15.3665 65.4893C15.2537 65.5498 15.1326 65.5781 15.0135 65.5781V65.5781Z" fill="#9CA2A4"/>
<path d="M50.6257 59.8626C50.3313 59.8626 50.052 59.6888 49.9324 59.3997C48.4001 55.7005 48.4001 51.6273 49.9324 47.928C51.4641 44.2298 54.345 41.3489 58.0437 39.8167C58.429 39.6624 58.866 39.8402 59.0237 40.223C59.1824 40.6058 59.0002 41.0443 58.6179 41.2034C55.2893 42.5814 52.6965 45.1741 51.3181 48.5023C49.9392 51.8314 49.9392 55.4974 51.3181 58.8255C51.4768 59.2083 51.2952 59.6468 50.9124 59.806C50.8186 59.8441 50.721 59.8626 50.6257 59.8626H50.6257Z" fill="#9CA2A4"/>
<path d="M25.6079 32.6904C25.1938 32.6904 24.8579 32.3545 24.8579 31.9404C24.8579 24.5029 18.8071 18.4521 11.3701 18.4521C10.9561 18.4521 10.6201 18.1162 10.6201 17.7021C10.6201 17.2881 10.9561 16.9521 11.3701 16.9521C19.6343 16.9521 26.3579 23.6758 26.3579 31.9404C26.3579 32.3545 26.022 32.6904 25.6079 32.6904Z" fill="#9CA2A4"/>
<path d="M25.339 41.2189C24.505 41.2189 23.6676 41.0549 22.8673 40.7228C20.9884 39.9445 19.6154 38.3703 19.1003 36.4025L18.904 35.6545C18.4523 33.9289 17.0998 32.5764 15.3747 32.1242L14.6252 31.9279C12.6584 31.4133 11.0837 30.0402 10.3053 28.1613C9.5275 26.2824 9.67008 24.1984 10.6969 22.4436C10.9069 22.0861 11.3673 21.967 11.7233 22.175C12.0807 22.384 12.2008 22.844 11.9919 23.2014C11.2038 24.5471 11.0944 26.1467 11.6916 27.5881C12.2882 29.0285 13.4963 30.0822 15.005 30.4768L15.7546 30.6731C18.0036 31.2629 19.7663 33.0256 20.3551 35.2746L20.5514 36.0227C20.9465 37.5324 21.9997 38.7404 23.4411 39.3371C24.882 39.9338 26.4816 39.8234 27.8273 39.0363C28.1828 38.8283 28.6432 38.9465 28.8537 39.3049C29.0627 39.6623 28.9426 40.1223 28.5851 40.3313C27.5778 40.9201 26.4621 41.219 25.339 41.219L25.339 41.2189Z" fill="#9CA2A4"/>
<path d="M63.468 38.1523C62.6341 38.1523 61.7966 37.9883 60.9959 37.6562C59.117 36.8779 57.7439 35.3037 57.2288 33.3359L57.0325 32.5859C56.9275 32.1855 57.1673 31.7754 57.5681 31.6709C57.9656 31.5654 58.3782 31.8047 58.4837 32.207L58.6799 32.957C59.075 34.4658 60.1282 35.6738 61.5701 36.2705C63.01 36.8672 64.6096 36.7578 65.9558 35.9697L66.6252 35.5791C66.9827 35.3701 67.4426 35.4902 67.6511 35.8486C67.8601 36.2061 67.7395 36.665 67.3821 36.874L66.7131 37.2646C65.7063 37.8545 64.5906 38.1523 63.468 38.1523L63.468 38.1523Z" fill="#9CA2A4"/>
<path d="M67.0566 29.691C66.9131 29.691 66.7686 29.65 66.6406 29.565L46.0835 15.8287C45.7388 15.5982 45.6465 15.1324 45.8765 14.7877C46.1069 14.4439 46.5732 14.3521 46.9165 14.5806L67.4736 28.317C67.8184 28.5474 67.9106 29.0133 67.6807 29.358C67.5361 29.5738 67.2983 29.691 67.0566 29.691Z" fill="#9CA2A4"/>
<path d="M24.6546 14.5506C24.3973 14.5506 24.1463 14.4178 24.0067 14.1795L23.6156 13.5106C22.5887 11.7547 22.4466 9.67074 23.2245 7.79183C24.0028 5.9139 25.5775 4.54085 27.5448 4.02523C27.9418 3.91878 28.3548 4.15902 28.4603 4.56039C28.5653 4.96176 28.3255 5.37094 27.9247 5.47641C26.4154 5.87192 25.2074 6.92465 24.6102 8.36606C24.0135 9.80747 24.1229 11.4061 24.9105 12.7528L25.3016 13.4217C25.5106 13.7801 25.3905 14.2391 25.0326 14.4481C24.9139 14.5174 24.7836 14.5506 24.6547 14.5506L24.6546 14.5506Z" fill="#9CA2A4"/>
</svg>
